<svg xmlns="http://www.w3.org/2000/svg" id="Layer_1" data-name="Layer 1" viewBox="0 0 291.32 291.32"><defs><style>      .cls-1 {        fill: #fff;      }      .cls-2 {        fill: #c3002f;      }      .cls-3 {        fill: #dd0031;      }    </style></defs><polygon class="cls-3" points="145.66 19.82 145.66 19.82 145.66 19.82 28.51 61.6 46.38 216.5 145.66 271.49 145.66 271.49 145.66 271.49 244.94 216.5 262.81 61.6 145.66 19.82"></polygon><polygon class="cls-2" points="145.66 19.82 145.66 47.76 145.66 47.63 145.66 175.1 145.66 175.1 145.66 271.49 145.66 271.49 244.94 216.5 262.81 61.6 145.66 19.82"></polygon><path class="cls-1" d="M145.66,47.63L72.42,211.85h27.31l14.72-36.74h62.16l14.72,36.74h27.31L145.66,47.63Zm21.39,104.82h-42.78l21.39-51.47,21.39,51.47Z"></path></svg>