<svg xmlns="http://www.w3.org/2000/svg" id="Layer_1" data-name="Layer 1" viewBox="0 0 291.32 291.32"><defs><style>      .cls-1 {        fill: #252f3e;      }      .cls-2 {        fill: #f90;        fill-rule: evenodd;      }    </style></defs><path class="cls-1" d="M89.8,124.71c0,3.15,.34,5.7,.94,7.58,.68,1.87,1.53,3.92,2.72,6.13,.43,.68,.6,1.36,.6,1.96,0,.85-.51,1.7-1.62,2.55l-5.36,3.58c-.77,.51-1.53,.77-2.21,.77-.85,0-1.7-.43-2.55-1.19-1.19-1.28-2.21-2.64-3.07-4-.85-1.45-1.7-3.07-2.64-5.02-6.64,7.83-14.99,11.75-25.03,11.75-7.15,0-12.86-2.04-17.03-6.13-4.17-4.09-6.3-9.54-6.3-16.35,0-7.24,2.55-13.11,7.75-17.54,5.19-4.43,12.09-6.64,20.86-6.64,2.89,0,5.87,.26,9.03,.68s6.39,1.11,9.79,1.87v-6.22c0-6.47-1.36-10.98-4-13.62-2.72-2.64-7.32-3.92-13.88-3.92-2.98,0-6.05,.34-9.2,1.11s-6.22,1.7-9.2,2.89c-1.36,.6-2.38,.94-2.98,1.11-.6,.17-1.02,.26-1.36,.26-1.19,0-1.79-.85-1.79-2.64v-4.17c0-1.36,.17-2.38,.6-2.98s1.19-1.19,2.38-1.79c2.98-1.53,6.56-2.81,10.73-3.83,4.17-1.11,8.6-1.62,13.28-1.62,10.13,0,17.54,2.3,22.31,6.9,4.68,4.6,7.07,11.58,7.07,20.95v27.59h.17Zm-34.57,12.94c2.81,0,5.7-.51,8.77-1.53,3.07-1.02,5.79-2.89,8.09-5.45,1.36-1.62,2.38-3.41,2.89-5.45s.85-4.51,.85-7.41v-3.58c-2.47-.6-5.11-1.11-7.83-1.45s-5.36-.51-8-.51c-5.7,0-9.88,1.11-12.69,3.41-2.81,2.3-4.17,5.53-4.17,9.79,0,4,1.02,6.98,3.15,9.03,2.04,2.13,5.02,3.15,8.94,3.15Zm68.37,9.2c-1.53,0-2.55-.26-3.24-.85-.68-.51-1.28-1.7-1.79-3.32l-20.01-65.82c-.51-1.7-.77-2.81-.77-3.41,0-1.36,.68-2.13,2.04-2.13h8.34c1.62,0,2.72,.26,3.32,.85,.68,.51,1.19,1.7,1.7,3.32l14.3,56.36,13.28-56.36c.43-1.7,.94-2.81,1.62-3.32,.68-.51,1.87-.85,3.41-.85h6.81c1.62,0,2.72,.26,3.41,.85,.68,.51,1.28,1.7,1.62,3.32l13.45,57.05,14.73-57.05c.51-1.7,1.11-2.81,1.7-3.32,.68-.51,1.79-.85,3.32-.85h7.92c1.36,0,2.13,.68,2.13,2.13,0,.43-.09,.85-.17,1.36-.09,.51-.26,1.19-.6,2.13l-20.52,65.82c-.51,1.7-1.11,2.81-1.79,3.32s-1.79,.85-3.24,.85h-7.32c-1.62,0-2.72-.26-3.41-.85s-1.28-1.7-1.62-3.41l-13.2-54.92-13.11,54.83c-.43,1.7-.94,2.81-1.62,3.41-.68,.6-1.87,.85-3.41,.85h-7.32Zm109.41,2.3c-4.43,0-8.85-.51-13.11-1.53-4.26-1.02-7.58-2.13-9.79-3.41-1.36-.77-2.3-1.62-2.64-2.38-.34-.77-.51-1.62-.51-2.38v-4.34c0-1.79,.68-2.64,1.96-2.64,.51,0,1.02,.09,1.53,.26,.51,.17,1.28,.51,2.13,.85,2.89,1.28,6.05,2.3,9.37,2.98,3.41,.68,6.73,1.02,10.13,1.02,5.36,0,9.54-.94,12.43-2.81,2.89-1.87,4.43-4.6,4.43-8.09,0-2.38-.77-4.34-2.3-5.96-1.53-1.62-4.43-3.07-8.6-4.43l-12.35-3.83c-6.22-1.96-10.81-4.85-13.62-8.68-2.81-3.75-4.26-7.92-4.26-12.35,0-3.58,.77-6.73,2.3-9.45,1.53-2.72,3.58-5.11,6.13-6.98,2.55-1.96,5.45-3.41,8.85-4.43,3.41-1.02,6.98-1.45,10.73-1.45,1.87,0,3.83,.09,5.7,.34,1.96,.26,3.75,.6,5.53,.94,1.7,.43,3.32,.85,4.85,1.36,1.53,.51,2.72,1.02,3.58,1.53,1.19,.68,2.04,1.36,2.55,2.13,.51,.68,.77,1.62,.77,2.81v4c0,1.79-.68,2.72-1.96,2.72-.68,0-1.79-.34-3.24-1.02-4.85-2.21-10.3-3.32-16.35-3.32-4.85,0-8.68,.77-11.32,2.38s-4,4.09-4,7.58c0,2.38,.85,4.43,2.55,6.05,1.7,1.62,4.85,3.24,9.37,4.68l12.09,3.83c6.13,1.96,10.56,4.68,13.2,8.17,2.64,3.49,3.92,7.49,3.92,11.92,0,3.66-.77,6.98-2.21,9.88-1.53,2.89-3.58,5.45-6.22,7.49-2.64,2.13-5.79,3.66-9.45,4.77-3.83,1.19-7.83,1.79-12.18,1.79Z"></path><g><path class="cls-2" d="M249.11,190.53c-28.01,20.69-68.71,31.67-103.7,31.67-49.04,0-93.23-18.14-126.61-48.28-2.64-2.38-.26-5.62,2.89-3.75,36.1,20.95,80.63,33.63,126.69,33.63,31.08,0,65.22-6.47,96.64-19.75,4.68-2.13,8.68,3.07,4.09,6.47Z"></path><path class="cls-2" d="M260.77,177.25c-3.58-4.6-23.67-2.21-32.78-1.11-2.72,.34-3.15-2.04-.68-3.83,16.01-11.24,42.32-8,45.38-4.26,3.07,3.83-.85,30.14-15.84,42.74-2.3,1.96-4.51,.94-3.49-1.62,3.41-8.43,10.98-27.42,7.41-31.93Z"></path></g></svg>