<svg xmlns="http://www.w3.org/2000/svg" xmlns:xlink="http://www.w3.org/1999/xlink" id="Layer_1" x="0px" y="0px" viewBox="0 0 128 128" style="enable-background:new 0 0 128 128;" xml:space="preserve"><style type="text/css">	.st0{fill:#7A11F5;}	.st1{fill:#F5EEFC;}</style><g>	<path class="st0" d="M127.8,66.7c-0.5,1.2-2.2,0.8-3.2,1.3c-3.7,1.7-5.8,4.7-7.3,8.4c-2.7,6.6-3.3,13.6-3.4,20.7  c0,2.5,0.2,4.9-0.3,7.4c-1.2,5.8-6,10.2-11.9,10.2c-25.1,0.1-50.1,0.1-75.2,0c-7.3,0-12.5-6.1-12.3-13.8c0.2-6.6-0.1-13.2-1.7-19.7  c-0.9-3.5-2.1-6.8-4.4-9.6c-1.8-2.2-4-3.9-7.1-4c-0.6,0-0.9-0.2-0.9-0.9c0-0.5,0-1,0-1.5c0-1.3-0.3-2.7,0.1-3.9  C0.7,60,2.5,60.5,3.6,60c4-1.9,6.2-5.3,7.6-9.3C13,46,13.5,41,14,36.1c0.4-4.3-0.4-8.7,0.6-13c1.3-5.8,6.2-9.7,12.2-9.7  c12.4,0,24.8,0,37.2,0v0c12.1,0,24.2,0.2,36.3-0.1c8.9-0.2,14,7.1,13.6,13.8c-0.4,7.3,0.1,14.6,2.2,21.7c0.9,3.1,2.3,6,4.3,8.4  c1.4,1.8,3.6,2.9,5.9,3.3c1.4,0.3,1.8,0.8,1.6,2.1c0,0.1,0,0.3,0,0.4C127.9,64.2,128.2,65.6,127.8,66.7z"></path>	<path class="st1" d="M74.4,63c7.1,1.5,11.3,6.3,11.4,13c0.1,7.7-4.3,13.4-11.9,15.2c-2.2,0.5-4.4,0.8-6.7,0.8c-6.7,0-13.5,0-20.2,0  C45.6,92,45,91.7,45,90c0.1-17.1,0-34.3,0-51.4c0-1.3,0.3-1.7,1.6-1.7c6.8,0.1,13.6,0,20.4,0.1c2.7,0,5.3,0.5,7.8,1.5  c4.9,1.8,8.4,6.9,8.4,12c0,5.4-3.1,9.8-8.3,11.9C74.7,62.4,74.4,62.5,74.4,63z M53.8,75.9c0,2.5,0,5,0,7.5c0,0.7-0.1,1.4,1,1.4  c4.9-0.1,9.9,0.4,14.7-0.4c4.7-0.8,7.4-3.8,7.4-8.2c0.1-4.9-2-7.5-7-8.6c-5-1.2-10.2-0.4-15.3-0.6c-1.1,0-0.9,0.8-0.9,1.5  C53.8,70.9,53.8,73.4,53.8,75.9z M53.8,52.2c0,2.2,0.1,4.4,0,6.5c0,1.2,0.4,1.5,1.5,1.5c1.6-0.1,3.2,0,4.9,0c2.9,0,5.9,0.2,8.7-0.8  c4.3-1.5,5.9-4.2,5.5-8.9c-0.3-3.3-2.9-5.7-7-6.1c-4.1-0.5-8.2-0.1-12.3-0.2c-1,0-1.3,0.4-1.3,1.3C53.8,47.7,53.8,50,53.8,52.2z"></path></g></svg>