<svg xmlns="http://www.w3.org/2000/svg" id="Layer_1" data-name="Layer 1" viewBox="0 0 291.32 291.32"><defs><style>      .cls-1 {        fill: #2496ed;      }    </style></defs><path class="cls-1" d="M260.73,125.06c-.62-.49-6.57-4.99-19.12-4.99-3.32,0-6.6,.3-9.89,.85-2.43-16.63-16.17-24.74-16.79-25.1l-3.35-1.94-2.2,3.19c-2.76,4.3-4.8,9.04-5.98,14-2.23,9.5-.89,18.4,3.94,26.02-5.82,3.25-15.18,4.04-17.05,4.11H35.63c-4.04,0-7.33,3.29-7.33,7.29-.16,13.54,2.1,27.01,6.77,39.72,5.32,13.96,13.24,24.25,23.56,30.56,11.57,7.06,30.33,11.11,51.62,11.11,9.63,.03,19.22-.85,28.65-2.6,13.14-2.4,25.79-7,37.39-13.6,9.56-5.55,18.2-12.62,25.53-20.9,12.26-13.87,19.55-29.31,24.97-43.04h2.17c13.41,0,21.65-5.36,26.22-9.86,3.02-2.86,5.39-6.37,6.9-10.25l.95-2.83-2.3-1.74Z"></path><path class="cls-1" d="M49.95,136.66h20.73c.99,0,1.81-.82,1.81-1.81h0v-18.47c0-.99-.79-1.81-1.81-1.81h-20.73c-.99,0-1.81,.82-1.81,1.81h0v18.47c0,.99,.82,1.81,1.81,1.81h0"></path><path class="cls-1" d="M78.5,136.66h20.73c.99,0,1.81-.82,1.81-1.81h0v-18.47c0-.99-.79-1.81-1.81-1.81h-20.73c-1.02,0-1.81,.82-1.81,1.81v18.47c0,.99,.82,1.81,1.81,1.81"></path><path class="cls-1" d="M107.52,136.66h20.73c.99,0,1.81-.82,1.81-1.81h0v-18.47c0-.99-.79-1.81-1.81-1.81h-20.73c-.99,0-1.81,.82-1.81,1.81h0v18.47c0,.99,.79,1.81,1.81,1.81h0"></path><path class="cls-1" d="M136.17,136.66h20.73c.99,0,1.81-.82,1.81-1.81v-18.47c0-1.02-.82-1.81-1.81-1.81h-20.73c-.99,0-1.81,.82-1.81,1.81h0v18.47c0,.99,.79,1.81,1.81,1.81h0"></path><path class="cls-1" d="M78.5,110.11h20.73c.99,0,1.81-.82,1.81-1.81v-18.47c0-.99-.82-1.81-1.81-1.81h-20.73c-.99,0-1.81,.82-1.81,1.81v18.47c0,.99,.82,1.81,1.81,1.81"></path><path class="cls-1" d="M107.52,110.11h20.73c.99,0,1.81-.82,1.81-1.81v-18.47c0-.99-.82-1.81-1.81-1.81h-20.73c-.99,0-1.81,.82-1.81,1.81h0v18.47c0,.99,.79,1.81,1.81,1.81"></path><path class="cls-1" d="M136.17,110.11h20.73c1.02,0,1.81-.82,1.81-1.81v-18.47c0-.99-.82-1.81-1.81-1.81h-20.73c-.99,0-1.81,.82-1.81,1.81h0v18.47c0,.99,.79,1.81,1.81,1.81"></path><path class="cls-1" d="M136.17,83.53h20.73c.99,0,1.81-.82,1.81-1.81v-18.47c0-.99-.82-1.81-1.81-1.81h-20.73c-.99,0-1.81,.82-1.81,1.81h0v18.47c0,1.02,.79,1.81,1.81,1.81"></path><path class="cls-1" d="M165.05,136.66h20.73c.99,0,1.81-.82,1.81-1.81v-18.47c0-1.02-.82-1.81-1.81-1.81h-20.73c-.99,0-1.81,.82-1.81,1.81h0v18.47c0,.99,.82,1.81,1.81,1.81"></path></svg>