<svg xmlns="http://www.w3.org/2000/svg" id="Layer_1" data-name="Layer 1" viewBox="0 0 291.32 291.32"><defs><style>      .cls-1 {        fill: #a259ff;      }      .cls-1, .cls-2, .cls-3, .cls-4 {        fill-rule: evenodd;      }      .cls-5 {        fill: #19bcfe;      }      .cls-2 {        fill: #f24e1e;      }      .cls-3 {        fill: #09cf83;      }      .cls-4 {        fill: #ff7262;      }    </style></defs><circle class="cls-5" cx="181.09" cy="145.66" r="35.43"></circle><path class="cls-3" d="M110.23,251.96c19.57,0,35.43-15.86,35.43-35.43v-35.43h-35.43c-19.57,0-35.43,15.86-35.43,35.43s15.86,35.43,35.43,35.43Z"></path><path class="cls-1" d="M110.23,181.09h35.43V110.23h-35.43c-19.57,0-35.43,15.86-35.43,35.43s15.86,35.43,35.43,35.43Z"></path><path class="cls-2" d="M110.23,110.23h35.43V39.36h-35.43c-19.57,0-35.43,15.86-35.43,35.43s15.86,35.43,35.43,35.43Z"></path><path class="cls-4" d="M181.09,110.23h-35.43V39.36h35.43c19.57,0,35.43,15.86,35.43,35.43s-15.86,35.43-35.43,35.43Z"></path></svg>