<svg xmlns="http://www.w3.org/2000/svg" id="Layer_1" height="512" viewBox="0 0 256 256" width="512" data-name="Layer 1"><g id="Surfaces"><g id="Photo_Surface" data-name="Photo Surface"><g id="Outline_no_shadow" data-name="Outline no shadow"><rect fill="#49021f" height="232" rx="42" width="240" x="8" y="12"></rect></g></g></g><g fill="#f36"><path d="m96 78v104.5c0 1-.45 1.5-1.34 1.5h-17.32c-.9 0-1.34-.5-1.34-1.5v-104.5a1.18 1.18 0 0 1 1.34-1.34h17.49c.78 0 1.17.45 1.17 1.34z"></path><path d="m147.84 186c-11.61 0-20.54-3.29-27.48-9.86s-10.42-16.28-10.42-29.14q0-17.53 11.19-28.8a40.07 40.07 0 0 1 29.51-12.2 29.62 29.62 0 0 1 7.3.78v-33.84a.83.83 0 0 1 .93-.94h18.29c.52 0 .78.31.78.94v94.75c0 4 1.73 7.41 2 10.33a1.26 1.26 0 0 1 -.78 1.41c-8.98 4.38-20.75 6.57-31.32 6.57zm10.1-15.49v-48.37c-.65-1.14-4.09-2.14-7.61-2.14a19.61 19.61 0 0 0 -15.4 6.85 29.24 29.24 0 0 0 -7 19.4c0 8.76 3 14.76 6.92 18.93a19.88 19.88 0 0 0 14.85 6.82c3.74 0 7.39-.56 8.24-1.49z"></path></g></svg>