<svg xmlns="http://www.w3.org/2000/svg" id="Layer_1" data-name="Layer 1" viewBox="0 0 291.32 291.32"><defs><style>      .cls-1 {        fill: #333;      }      .cls-2 {        fill: #f1dc50;      }    </style></defs><rect class="cls-2" x="23.01" y="23.01" width="245.3" height="245.3" rx="22.61" ry="22.61"></rect><path class="cls-1" d="M212.1,247.87c-19.86,0-33.79-9.39-40.26-27.16l19.2-7.01c3.51,9.62,9.81,13.72,21.06,13.72,7,0,15.33-1.78,15.33-10.22,0-3.35,0-11.22-17.72-15.63-27.6-6.88-33.39-23.09-33.39-35.47,0-14.86,12.19-30.66,34.78-30.66,9.58,0,23.12,3.55,33.18,20.49l-17.57,10.44c-5.53-9.3-11.25-10.49-15.61-10.49-9.41,0-14.34,5.14-14.34,10.22,0,3.63,0,11.18,17.89,15.63,28.91,7.21,33.22,25.32,33.22,35.47,0,18.34-14.37,30.66-35.77,30.66Zm-86.88,0c-24.97,0-35.06-17.99-35.76-30.07l20.41-1.18c.3,3.13,2.42,10.81,15.35,10.81,8.89,0,10.22-6.41,10.22-10.22v-81.77h20.44v81.77c0,15.24-10.53,30.66-30.66,30.66Z"></path></svg>