<svg xmlns="http://www.w3.org/2000/svg" xmlns:xlink="http://www.w3.org/1999/xlink" id="Layer_1" data-name="Layer 1" viewBox="0 0 291.32 291.32"><defs><style>      .cls-1 {        fill: url(#linear-gradient-4);      }      .cls-1, .cls-2, .cls-3, .cls-4, .cls-5 {        fill-rule: evenodd;      }      .cls-6 {        fill: url(#linear-gradient-2);      }      .cls-7 {        fill: #539e43;      }      .cls-8 {        fill: #333;      }      .cls-2 {        fill: url(#linear-gradient-6);      }      .cls-3 {        fill: url(#linear-gradient-5);      }      .cls-9 {        fill: none;      }      .cls-10 {        mask: url(#mask-1);      }      .cls-11 {        mask: url(#mask);      }      .cls-12 {        fill: url(#linear-gradient);      }      .cls-4 {        fill: url(#linear-gradient-7);      }      .cls-5 {        fill: url(#linear-gradient-3);      }    </style><linearGradient id="linear-gradient" x1="-1176.13" y1="701.55" x2="-1176.33" y2="701.2" gradientTransform="translate(128306.77 87237.39) scale(108.99 -124.19)" gradientUnits="userSpaceOnUse"><stop offset="0" stop-color="#41873f"></stop><stop offset=".33" stop-color="#418b3d"></stop><stop offset=".64" stop-color="#419637"></stop><stop offset=".93" stop-color="#3fa92d"></stop><stop offset="1" stop-color="#3fae2a"></stop></linearGradient><mask id="mask" x="86.25" y="104.06" width="53.35" height="60.79" maskUnits="userSpaceOnUse"></mask><linearGradient id="linear-gradient-2" x1="-1176.01" y1="701.37" x2="-1175.44" y2="701.73" gradientTransform="translate(125289.9 87200.13) scale(106.45 -124.13)" gradientUnits="userSpaceOnUse"><stop offset=".14" stop-color="#41873f"></stop><stop offset=".4" stop-color="#54a044"></stop><stop offset=".71" stop-color="#66b848"></stop><stop offset=".91" stop-color="#6cc04a"></stop></linearGradient><mask id="mask-1" x="86.25" y="104.06" width="53.35" height="60.79" maskUnits="userSpaceOnUse"></mask><linearGradient id="linear-gradient-3" x1="-4.22" y1="314.05" x2="43.47" y2="314.05" gradientTransform="translate(94.28 208.38) scale(.92 -.35)" gradientUnits="userSpaceOnUse"><stop offset=".09" stop-color="#6cc04a"></stop><stop offset=".29" stop-color="#66b848"></stop><stop offset=".6" stop-color="#54a044"></stop><stop offset=".86" stop-color="#41873f"></stop></linearGradient><linearGradient id="linear-gradient-4" x1="-1176.24" y1="701.39" x2="-1175.72" y2="701.39" gradientTransform="translate(125154.57 87270.68) scale(106.33 -124.23)" xlink:href="#linear-gradient-3"></linearGradient><linearGradient id="linear-gradient-5" x1="1886.84" y1="601.18" x2="1934.53" y2="601.18" gradientTransform="translate(-530.36 636.56) scale(.35 -.81)" xlink:href="#linear-gradient-3"></linearGradient><linearGradient id="linear-gradient-6" x1="-1167.24" y1="700.02" x2="-1166.24" y2="700.02" gradientTransform="translate(64299.86 24185.96) scale(55.01 -34.33)" xlink:href="#linear-gradient-3"></linearGradient><linearGradient id="linear-gradient-7" x1="-1166.09" y1="701.29" x2="-1166.71" y2="699.27" gradientTransform="translate(64299.86 24185.96) scale(55.01 -34.33)" xlink:href="#linear-gradient"></linearGradient></defs><path class="cls-7" d="M144.3,222.29c-.85,0-1.64-.23-2.38-.62l-7.52-4.47c-1.13-.62-.57-.85-.23-.96,1.53-.51,1.81-.62,3.39-1.53,.17-.11,.4-.06,.57,.06l5.77,3.45c.23,.11,.51,.11,.68,0l22.57-13.07c.23-.11,.34-.34,.34-.62v-26.08c0-.28-.11-.51-.34-.62l-22.57-13.01c-.23-.11-.51-.11-.68,0l-22.57,13.01c-.23,.11-.34,.4-.34,.62v26.08c0,.23,.11,.51,.34,.62l6.17,3.56c3.34,1.7,5.43-.28,5.43-2.26v-25.74c0-.34,.28-.68,.68-.68h2.89c.34,0,.68,.28,.68,.68v25.74c0,4.47-2.43,7.07-6.68,7.07-1.3,0-2.32,0-5.21-1.41l-5.94-3.39c-1.47-.85-2.38-2.43-2.38-4.13v-26.08c0-1.7,.91-3.28,2.38-4.13l22.57-13.07c1.41-.79,3.34-.79,4.75,0l22.57,13.07c1.47,.85,2.38,2.43,2.38,4.13v26.08c0,1.7-.91,3.28-2.38,4.13l-22.57,13.07c-.74,.34-1.58,.51-2.38,.51Zm6.96-17.93c-9.9,0-11.94-4.53-11.94-8.37,0-.34,.28-.68,.68-.68h2.94c.34,0,.62,.23,.62,.57,.45,3,1.75,4.47,7.75,4.47,4.75,0,6.79-1.07,6.79-3.62,0-1.47-.57-2.55-7.98-3.28-6.17-.62-10.01-1.98-10.01-6.9,0-4.58,3.85-7.3,10.3-7.3,7.24,0,10.81,2.49,11.26,7.92,0,.17-.06,.34-.17,.51-.11,.11-.28,.23-.45,.23h-2.94c-.28,0-.57-.23-.62-.51-.68-3.11-2.43-4.13-7.07-4.13-5.21,0-5.83,1.81-5.83,3.17,0,1.64,.74,2.15,7.75,3.06,6.96,.91,10.24,2.21,10.24,7.07-.06,4.98-4.13,7.81-11.32,7.81Z"></path><path class="cls-8" d="M74.26,120.28c0-1.02-.57-1.98-1.47-2.49l-23.99-13.8c-.4-.23-.85-.34-1.3-.4h-.23c-.45,0-.91,.17-1.3,.4l-23.99,13.8c-.91,.51-1.47,1.47-1.47,2.49l.06,37.11c0,.51,.28,1.02,.74,1.24,.45,.28,1.02,.28,1.41,0l14.26-8.15c.91-.51,1.47-1.47,1.47-2.49v-17.37c0-1.02,.57-1.98,1.47-2.49l6.05-3.51c.45-.28,.96-.4,1.47-.4s1.02,.11,1.41,.4l6.05,3.51c.91,.51,1.47,1.47,1.47,2.49v17.37c0,1.02,.57,1.98,1.47,2.49l14.26,8.15c.45,.28,1.02,.28,1.47,0,.45-.23,.74-.74,.74-1.24l-.06-37.11h0Z"></path><path class="cls-8" d="M189.56,69.2c-.45-.23-1.02-.23-1.41,0-.45,.28-.74,.74-.74,1.24v36.77c0,.34-.17,.68-.51,.91-.34,.17-.68,.17-1.02,0l-6-3.45c-.91-.51-1.98-.51-2.89,0l-23.99,13.86c-.91,.51-1.47,1.47-1.47,2.49v27.67c0,1.02,.57,1.98,1.47,2.49l23.99,13.86c.91,.51,1.98,.51,2.89,0l23.99-13.86c.91-.51,1.47-1.47,1.47-2.49V79.72c0-1.07-.57-2.04-1.47-2.55l-14.31-7.98h0Zm-2.21,70.38c0,.28-.11,.51-.34,.62l-8.2,4.75c-.23,.11-.51,.11-.74,0l-8.2-4.75c-.23-.11-.34-.4-.34-.62v-9.5c0-.28,.11-.51,.34-.62l8.2-4.75c.23-.11,.51-.11,.74,0l8.2,4.75c.23,.11,.34,.4,.34,.62v9.5h0Z"></path><g><path class="cls-8" d="M269.39,129.85c.91-.51,1.41-1.47,1.41-2.49v-6.73c0-1.02-.57-1.98-1.41-2.49l-23.82-13.8c-.91-.51-1.98-.51-2.89,0l-23.99,13.86c-.91,.51-1.47,1.47-1.47,2.49v27.67c0,1.02,.57,1.98,1.47,2.49l23.82,13.58c.91,.51,1.98,.51,2.83,0l14.43-8.03c.45-.23,.74-.74,.74-1.24s-.28-1.02-.74-1.24l-24.1-13.86c-.45-.28-.74-.74-.74-1.24v-8.66c0-.51,.28-1.02,.74-1.24l7.52-4.3c.45-.28,1.02-.28,1.47,0l7.52,4.3c.45,.28,.74,.74,.74,1.24v6.79c0,.51,.28,1.02,.74,1.24,.45,.28,1.02,.28,1.47,0l14.26-8.32h0Z"></path><path class="cls-7" d="M243.76,128.55c.17-.11,.4-.11,.57,0l4.58,2.66c.17,.11,.28,.28,.28,.51v5.32c0,.23-.11,.4-.28,.51l-4.58,2.66c-.17,.11-.4,.11-.57,0l-4.58-2.66c-.17-.11-.28-.28-.28-.51v-5.32c0-.23,.11-.4,.28-.51l4.58-2.66h0Z"></path></g><g><path id="path-2" class="cls-12" d="M114.37,104.44c-.91-.51-1.98-.51-2.89,0l-23.82,13.75c-.91,.51-1.41,1.47-1.41,2.49v27.55c0,1.02,.57,1.98,1.41,2.49l23.82,13.75c.91,.51,1.98,.51,2.89,0l23.82-13.75c.91-.51,1.41-1.47,1.41-2.49v-27.55c0-1.02-.57-1.98-1.41-2.49l-23.82-13.75h0Z"></path><g class="cls-11"><g><path class="cls-9" d="M111.43,104.44l-23.88,13.75c-.91,.51-1.53,1.47-1.53,2.49v27.55c0,.68,.28,1.3,.74,1.81l26.82-45.94c-.68-.11-1.47-.06-2.15,.34h0Z"></path><path class="cls-9" d="M113.75,164.75c.23-.06,.45-.17,.68-.28l23.88-13.75c.91-.51,1.47-1.47,1.47-2.49v-27.55c0-.74-.34-1.47-.85-1.98l-25.18,46.05h0Z"></path><path class="cls-6" d="M138.25,118.19l-23.93-13.75c-.23-.11-.51-.23-.74-.28l-26.82,45.94c.23,.28,.51,.51,.79,.68l23.93,13.75c.68,.4,1.47,.51,2.21,.28l25.18-46.05c-.17-.23-.4-.4-.62-.57h0Z"></path></g></g><g class="cls-10"><g><path class="cls-9" d="M139.78,148.23v-27.55c0-1.02-.62-1.98-1.53-2.49l-23.93-13.75c-.28-.17-.57-.28-.91-.34l26.19,44.75c.11-.17,.17-.4,.17-.62h0Z"></path><path class="cls-9" d="M87.56,118.19c-.91,.51-1.53,1.47-1.53,2.49v27.55c0,1.02,.68,1.98,1.53,2.49l23.93,13.75c.57,.34,1.19,.45,1.87,.34l-25.63-46.68-.17,.06h0Z"></path><path class="cls-5" d="M110.7,99.41l-.34,.17h.45l-.11-.17Z"></path><path class="cls-1" d="M138.3,150.72c.68-.4,1.19-1.07,1.41-1.81l-26.25-44.81c-.68-.11-1.41-.06-2.04,.34l-23.76,13.69,25.63,46.73c.34-.06,.74-.17,1.07-.34l23.93-13.8h0Z"></path><path class="cls-3" d="M140.51,150.27l-.17-.28v.4l.17-.11Z"></path><path class="cls-2" d="M138.3,150.72l-23.88,13.75c-.34,.17-.68,.28-1.07,.34l.45,.85,26.48-15.33v-.34l-.68-1.13c-.11,.79-.62,1.47-1.3,1.87h0Z"></path><path class="cls-4" d="M138.3,150.72l-23.88,13.75c-.34,.17-.68,.28-1.07,.34l.45,.85,26.48-15.33v-.34l-.68-1.13c-.11,.79-.62,1.47-1.3,1.87h0Z"></path></g></g></g></svg>