<svg xmlns="http://www.w3.org/2000/svg" xmlns:xlink="http://www.w3.org/1999/xlink" id="Layer_1" data-name="Layer 1" viewBox="0 0 291.32 291.32"><defs><style>      .cls-1 {        fill: #fff;      }      .cls-2 {        fill: url(#radial-gradient);      }      .cls-3 {        fill: none;      }      .cls-4 {        fill: #777bb3;      }    </style><radialGradient id="radial-gradient" cx="-1020.01" cy="1109.04" fx="-1020.01" fy="1109.04" r=".36" gradientTransform="translate(579420.74 629994.83) scale(567.96 -567.96)" gradientUnits="userSpaceOnUse"><stop offset="0" stop-color="#aeb2d5"></stop><stop offset=".3" stop-color="#aeb2d5"></stop><stop offset=".75" stop-color="#484c89"></stop><stop offset="1" stop-color="#484c89"></stop></radialGradient></defs><g id="g3438"><g id="g3440"><path class="cls-3" d="M22.73,145.66c0,35.71,55.04,64.67,122.93,64.67s122.93-28.95,122.93-64.67-55.04-64.67-122.93-64.67c-67.89,0-122.93,28.95-122.93,64.67"></path><g id="g3442"><g id="g3448"><g id="g3450"><path id="path3462" class="cls-2" d="M22.73,145.66c0,35.71,55.04,64.67,122.93,64.67s122.93-28.95,122.93-64.67-55.04-64.67-122.93-64.67c-67.89,0-122.93,28.95-122.93,64.67"></path></g></g></g></g><g id="g3464"><g id="g3466"><g id="g3472"><path id="path3474" class="cls-4" d="M145.66,205.53c65.24,0,118.13-26.8,118.13-59.87s-52.89-59.87-118.13-59.87S27.53,112.6,27.53,145.66s52.89,59.87,118.13,59.87"></path></g></g></g><g id="g3476"><g id="g3478"><g id="g3484"><path id="path3486" d="M89.52,153.08c5.36,0,9.37-.99,11.9-2.94,2.51-1.93,4.24-5.27,5.15-9.94,.85-4.36,.52-7.4-.96-9.05-1.52-1.68-4.79-2.53-9.73-2.53h-8.57l-4.75,24.46h6.97Zm-28.04,30.12c-.4,0-.78-.18-1.03-.49-.25-.31-.36-.71-.28-1.1l12.6-64.81c.12-.63,.67-1.08,1.31-1.08h27.15c8.53,0,14.88,2.32,18.87,6.89,4.01,4.59,5.25,11.01,3.68,19.08-.64,3.29-1.74,6.34-3.26,9.07-1.53,2.74-3.55,5.27-6.01,7.53-2.94,2.75-6.27,4.75-9.89,5.92-3.56,1.16-8.13,1.75-13.58,1.75h-10.99l-3.14,16.15c-.12,.63-.67,1.08-1.31,1.08h-14.12Z"></path></g><g id="g3488"><path id="path3490" class="cls-1" d="M88.4,129.96h7.47c5.97,0,8.04,1.31,8.74,2.09,1.17,1.3,1.39,4.03,.64,7.9-.84,4.33-2.41,7.41-4.65,9.14-2.3,1.77-6.03,2.66-11.09,2.66h-5.35l4.23-21.79Zm12.82-15.56h-27.15c-1.28,0-2.38,.91-2.62,2.16l-12.6,64.81c-.15,.78,.05,1.59,.56,2.21,.51,.61,1.26,.97,2.06,.97h14.12c1.28,0,2.38-.91,2.62-2.16l2.93-15.07h9.89c5.59,0,10.3-.61,14-1.81,3.8-1.23,7.29-3.33,10.38-6.22,2.56-2.35,4.66-4.99,6.26-7.85,1.6-2.86,2.74-6.04,3.41-9.47,1.65-8.49,.31-15.3-3.99-20.22-4.26-4.87-10.94-7.34-19.88-7.34m-20.29,40.02h8.59c5.69,0,9.93-1.07,12.72-3.22,2.79-2.14,4.66-5.73,5.64-10.74,.93-4.82,.51-8.21-1.28-10.2-1.79-1.98-5.36-2.97-10.73-2.97h-9.67l-5.27,27.12Zm20.29-37.35c8.17,0,14.12,2.14,17.87,6.43,3.74,4.29,4.87,10.27,3.38,17.95-.61,3.16-1.66,6.06-3.12,8.68-1.47,2.62-3.38,5.02-5.75,7.2-2.82,2.64-5.95,4.52-9.4,5.64-3.45,1.12-7.84,1.68-13.17,1.68h-12.09l-3.35,17.23h-14.12l12.6-64.81h27.15Z"></path></g><g id="g3492"><path id="path3494" d="M156.15,165.98c-.4,0-.78-.18-1.03-.49-.25-.31-.36-.71-.28-1.1l5.57-28.67c.53-2.73,.4-4.68-.37-5.51-.47-.51-1.88-1.35-6.05-1.35h-10.09l-7.01,36.05c-.12,.63-.67,1.08-1.31,1.08h-14.01c-.4,0-.78-.18-1.03-.49-.25-.31-.36-.71-.28-1.1l12.6-64.81c.12-.63,.67-1.08,1.31-1.08h14.01c.4,0,.78,.18,1.03,.48,.25,.31,.36,.71,.28,1.1l-3.04,15.64h10.86c8.27,0,13.88,1.46,17.15,4.46,3.33,3.06,4.37,7.96,3.09,14.55l-5.86,30.16c-.12,.63-.67,1.08-1.31,1.08h-14.23Z"></path></g><g id="g3496"><path id="path3498" class="cls-1" d="M148.18,97.17h-14.01c-1.28,0-2.38,.91-2.62,2.16l-12.6,64.81c-.15,.78,.05,1.59,.56,2.21s1.26,.97,2.06,.97h14.01c1.28,0,2.38-.91,2.62-2.16l6.8-34.97h8.99c4.16,0,5.04,.89,5.07,.93,.25,.27,.58,1.53,.04,4.35l-5.57,28.67c-.15,.78,.05,1.59,.56,2.21s1.26,.97,2.06,.97h14.23c1.28,0,2.38-.91,2.62-2.16l5.86-30.16c1.38-7.08,.2-12.39-3.5-15.78-3.53-3.24-9.43-4.81-18.05-4.81h-9.24l2.73-14.05c.15-.78-.05-1.59-.56-2.21-.51-.61-1.26-.97-2.06-.97m0,2.67l-3.35,17.23h12.48c7.85,0,13.27,1.37,16.25,4.11,2.98,2.74,3.87,7.18,2.68,13.31l-5.86,30.16h-14.23l5.57-28.67c.63-3.26,.4-5.49-.7-6.67-1.1-1.19-3.44-1.78-7.03-1.78h-11.19l-7.21,37.13h-14.01l12.6-64.81h14.01Z"></path></g><g id="g3500"><path id="path3502" d="M199.71,153.08c5.36,0,9.37-.99,11.9-2.94,2.51-1.93,4.24-5.27,5.15-9.94,.85-4.36,.52-7.4-.96-9.05-1.52-1.68-4.79-2.53-9.73-2.53h-8.57l-4.75,24.46h6.97Zm-28.04,30.12c-.4,0-.78-.18-1.03-.49-.25-.31-.36-.71-.28-1.1l12.6-64.81c.12-.63,.67-1.08,1.31-1.08h27.15c8.53,0,14.88,2.32,18.87,6.89,4.01,4.59,5.25,11.01,3.68,19.08-.64,3.29-1.74,6.34-3.26,9.07-1.53,2.74-3.55,5.27-6.01,7.53-2.94,2.75-6.27,4.75-9.89,5.92-3.56,1.16-8.13,1.75-13.58,1.75h-10.99l-3.14,16.15c-.12,.63-.67,1.08-1.31,1.08h-14.12Z"></path></g><g id="g3504"><path id="path3506" class="cls-1" d="M198.59,129.96h7.47c5.97,0,8.04,1.31,8.74,2.09,1.17,1.3,1.39,4.03,.64,7.9-.84,4.34-2.41,7.41-4.65,9.14-2.3,1.77-6.03,2.66-11.09,2.66h-5.35l4.23-21.79Zm12.82-15.56h-27.15c-1.28,0-2.38,.91-2.62,2.16l-12.6,64.81c-.15,.78,.05,1.59,.56,2.21,.51,.61,1.26,.97,2.06,.97h14.12c1.28,0,2.38-.91,2.62-2.16l2.93-15.07h9.89c5.59,0,10.3-.61,14-1.81,3.8-1.23,7.29-3.33,10.39-6.22,2.56-2.35,4.66-4.99,6.26-7.85,1.6-2.86,2.74-6.04,3.41-9.47,1.65-8.49,.31-15.3-3.99-20.22-4.26-4.87-10.94-7.34-19.88-7.34m-20.29,40.02h8.59c5.69,0,9.93-1.07,12.72-3.22,2.79-2.14,4.66-5.73,5.64-10.74,.93-4.82,.51-8.21-1.28-10.2-1.79-1.98-5.36-2.97-10.73-2.97h-9.67l-5.27,27.12Zm20.29-37.35c8.17,0,14.12,2.14,17.87,6.43,3.74,4.29,4.87,10.27,3.38,17.95-.61,3.16-1.66,6.06-3.12,8.68-1.47,2.62-3.38,5.02-5.75,7.2-2.82,2.64-5.95,4.52-9.4,5.64-3.45,1.12-7.84,1.68-13.17,1.68h-12.09l-3.35,17.23h-14.12l12.6-64.81h27.15Z"></path></g></g></g></g></svg>