<svg xmlns="http://www.w3.org/2000/svg" xmlns:xlink="http://www.w3.org/1999/xlink" id="Layer_1" data-name="Layer 1" viewBox="0 0 291.32 291.32"><defs><style>      .cls-1 {        fill: url(#linear-gradient-2);      }      .cls-2 {        fill: url(#linear-gradient);      }    </style><linearGradient id="linear-gradient" x1="411.63" y1="416.79" x2="655.76" y2="626.83" gradientTransform="translate(-216.57 -209.6) scale(.56)" gradientUnits="userSpaceOnUse"><stop offset="0" stop-color="#5a9fd4"></stop><stop offset="1" stop-color="#306998"></stop></linearGradient><linearGradient id="linear-gradient-2" x1="749.95" y1="753.97" x2="662.77" y2="630.63" gradientTransform="translate(-216.57 -209.6) scale(.56)" gradientUnits="userSpaceOnUse"><stop offset="0" stop-color="#ffd43b"></stop><stop offset="1" stop-color="#ffe873"></stop></linearGradient></defs><g id="g2303"><path id="path1948" class="cls-2" d="M144.18,19.83c-10.26,.05-20.07,.92-28.69,2.45-25.41,4.49-30.02,13.88-30.02,31.21v22.88h60.04v7.63H62.93c-17.45,0-32.73,10.49-37.51,30.44-5.51,22.87-5.76,37.14,0,61.02,4.27,17.77,14.46,30.44,31.91,30.44h20.64v-27.43c0-19.82,17.15-37.3,37.51-37.3h59.97c16.69,0,30.02-13.75,30.02-30.51V53.49c0-16.27-13.73-28.49-30.02-31.21-10.31-1.72-21.02-2.5-31.28-2.45h0Zm-32.47,18.4c6.2,0,11.27,5.15,11.27,11.48s-5.06,11.41-11.27,11.41-11.27-5.1-11.27-11.41,5.04-11.48,11.27-11.48Z"></path><path id="path1950" class="cls-1" d="M212.97,84v26.66c0,20.67-17.52,38.07-37.51,38.07h-59.97c-16.43,0-30.02,14.06-30.02,30.51v57.17c0,16.27,14.15,25.84,30.02,30.51,19.01,5.59,37.23,6.6,59.97,0,15.12-4.38,30.02-13.18,30.02-30.51v-22.88h-59.97v-7.63h89.99c17.45,0,23.95-12.17,30.02-30.44,6.27-18.81,6-36.89,0-61.02-4.31-17.37-12.55-30.44-30.02-30.44h-22.53Zm-33.73,144.78c6.22,0,11.27,5.1,11.27,11.41s-5.04,11.48-11.27,11.48-11.27-5.15-11.27-11.48c0-6.31,5.06-11.41,11.27-11.41Z"></path></g></svg>