<svg xmlns="http://www.w3.org/2000/svg" xmlns:xlink="http://www.w3.org/1999/xlink" id="Layer_1" data-name="Layer 1" viewBox="0 0 291.32 291.32"><defs><style>      .cls-1 {        fill: url(#linear-gradient-2);      }      .cls-2 {        fill: url(#linear-gradient);      }    </style><linearGradient id="linear-gradient" x1="203.61" y1="330.65" x2="203.61" y2="602.42" gradientTransform="translate(-57.68 -318.9)" gradientUnits="userSpaceOnUse"><stop offset="0" stop-color="#00efd1"></stop><stop offset="1" stop-color="#00acea"></stop></linearGradient><linearGradient id="linear-gradient-2" x1="203.59" y1="330.65" x2="203.59" y2="602.42" xlink:href="#linear-gradient"></linearGradient></defs><path class="cls-2" d="M250.67,78.48c-9.29-14.56-29.28-20.6-56.21-17.13-.95,.11-1.96,.28-2.91,.39-.39-.89-.78-1.79-1.23-2.69-11.59-24.58-27.43-38.13-44.67-38.13s-33.14,13.55-44.67,38.13c-.39,.89-.84,1.79-1.23,2.69-1.01-.17-1.96-.28-2.91-.39-26.98-3.53-46.91,2.58-56.21,17.13-9.29,14.56-6.44,35.21,8.01,58.17,1.9,3.02,3.98,6.05,6.21,9.01-2.24,3.02-4.31,5.99-6.21,9.01-14.44,22.95-17.3,43.67-8.01,58.17,7.56,11.87,22.23,18.08,41.99,18.08,4.74-.03,9.47-.34,14.16-.95,.95-.11,1.96-.28,2.91-.39,.39,.9,.79,1.79,1.23,2.69,11.59,24.58,27.43,38.13,44.67,38.13s33.14-13.55,44.67-38.13c.39-.9,.84-1.79,1.23-2.69,1.01,.17,1.96,.28,2.91,.39,4.69,.64,9.43,.95,14.16,.95,19.76,0,34.43-6.21,41.99-18.08,9.29-14.56,6.44-35.21-8-58.17-1.9-3.02-3.98-6.04-6.21-9.01,2.24-3.02,4.31-5.99,6.21-9.01,14.61-23.01,17.47-43.67,8.12-58.17Zm-139.57-14.67c9.46-20.15,22.06-31.69,34.54-31.69s25.08,11.53,34.54,31.69c0,.04,.03,.08,.06,.11-11.89,2.86-23.49,6.81-34.65,11.81-11.15-5.02-22.75-8.98-34.65-11.81,.11,0,.11-.06,.17-.11Zm84.98,81.85c0,8.96-.48,17.91-1.46,26.81-6.98,5.63-14.27,10.86-21.83,15.68-8.73,5.61-17.82,10.64-27.21,15.06-9.37-4.46-18.46-9.49-27.21-15.06-7.56-4.82-14.85-10.06-21.83-15.68-1.94-17.82-1.94-35.81,0-53.63,15.09-12.13,31.55-22.44,49.04-30.73,9.37,4.45,18.46,9.48,27.21,15.06,7.56,4.82,14.85,10.06,21.83,15.68,.97,8.91,1.46,17.86,1.46,26.82Zm10.69-16.29c5.48,5.11,10.64,10.55,15.45,16.29-4.81,5.74-9.97,11.18-15.45,16.29,.34-5.37,.51-10.8,.51-16.29s-.17-10.92-.51-16.29Zm-14.44,59.01c-1.77,9.69-4.33,19.22-7.67,28.49-8.69-1.96-17.23-4.58-25.53-7.84,6.6-3.47,13.21-7.28,19.76-11.42,4.59-2.97,9.07-6.05,13.44-9.24Zm-60.18,20.66c-8.28,3.3-16.82,5.92-25.53,7.84-3.34-9.27-5.9-18.8-7.67-28.49,4.31,3.19,8.79,6.27,13.44,9.18,6.55,4.2,13.16,8.01,19.76,11.48Zm-47.64-47.08c-5.48-5.11-10.64-10.55-15.45-16.29,4.81-5.74,9.97-11.19,15.45-16.29-.34,5.38-.51,10.81-.51,16.29s.17,10.92,.51,16.29Zm14.44-59.01c1.77-9.69,4.33-19.22,7.67-28.49,8.69,1.96,17.23,4.58,25.53,7.84-6.6,3.47-13.21,7.28-19.76,11.42-4.59,2.97-9.07,6.05-13.44,9.24Zm79.89-9.24c-6.49-4.14-13.1-8.01-19.76-11.42,8.28-3.3,16.82-5.92,25.53-7.84,3.33,9.27,5.9,18.8,7.67,28.49-4.31-3.19-8.79-6.27-13.44-9.24Zm-120.75,36.95c-11.87-18.81-14.78-35.66-8.06-46.19,5.38-8.4,17.02-12.93,32.75-12.93,4.21,.02,8.42,.3,12.6,.84h.11c-4.53,13.17-7.68,26.77-9.4,40.59-8.63,7.2-16.66,15.08-24.02,23.57-1.4-1.9-2.74-3.86-3.97-5.88Zm37.23,88.23c-4.18,.54-8.38,.82-12.6,.84-15.73,0-27.38-4.48-32.75-12.93-6.72-10.53-3.81-27.37,8.06-46.19,1.23-1.96,2.58-3.98,3.98-5.94,7.36,8.49,15.39,16.37,24.02,23.57,1.73,13.82,4.88,27.42,9.41,40.59,0,.06-.06,.06-.11,.06Zm84.87,8.62c-9.46,20.15-22.06,31.69-34.54,31.69s-25.08-11.53-34.54-31.69c0-.04-.03-.08-.06-.11,11.89-2.86,23.49-6.81,34.65-11.81,11.15,5.02,22.75,8.98,34.65,11.81-.11,0-.11,.05-.17,.11Zm53.02-66.84c11.87,18.81,14.78,35.66,8.06,46.19-6.72,10.52-23.23,14.95-45.29,12.04h-.11c4.53-13.17,7.68-26.77,9.41-40.59,8.63-7.2,16.66-15.08,24.02-23.57,1.34,1.96,2.69,3.92,3.92,5.94Zm-27.99-47.64c-1.72-13.82-4.87-27.42-9.4-40.59h.11c22.06-2.86,38.57,1.51,45.29,12.04,6.72,10.53,3.81,27.37-8.06,46.19-1.23,1.96-2.58,3.98-3.98,5.94-7.32-8.5-15.34-16.39-23.96-23.57Z"></path><path class="cls-1" d="M145.64,123.49c-12.24,0-22.17,9.93-22.17,22.17s9.93,22.17,22.17,22.17,22.17-9.92,22.17-22.17c0-12.24-9.93-22.16-22.17-22.17Zm0,33.14c-6.06,0-10.97-4.91-10.97-10.97s4.91-10.97,10.97-10.97,10.97,4.91,10.97,10.97c-.01,6.06-4.92,10.96-10.97,10.97Z"></path></svg>